<svg width="25" height="25" viewBox="0 0 25 25" fill="none" xmlns="http://www.w3.org/2000/svg">
<path d="M2.12256 2.10059H4.19321L6.94717 14.5594C7.04819 15.0156 7.31022 15.4235 7.68816 15.7128C8.06609 16.0021 8.53629 16.1547 9.01781 16.1443H19.1433C19.6145 16.1436 20.0714 15.9871 20.4385 15.7007C20.8056 15.4144 21.0608 15.0153 21.1622 14.5694L22.8704 7.11619H5.301M9.31806 21.1097C9.31806 21.6638 8.85453 22.1129 8.28273 22.1129C7.71094 22.1129 7.24741 21.6638 7.24741 21.1097C7.24741 20.5557 7.71094 20.1066 8.28273 20.1066C8.85453 20.1066 9.31806 20.5557 9.31806 21.1097ZM20.7066 21.1097C20.7066 21.6638 20.2431 22.1129 19.6713 22.1129C19.0995 22.1129 18.636 21.6638 18.636 21.1097C18.636 20.5557 19.0995 20.1066 19.6713 20.1066C20.2431 20.1066 20.7066 20.5557 20.7066 21.1097Z" stroke="white" stroke-width="2" stroke-linecap="round" stroke-linejoin="round"/>
</svg>
