<svg width="24" height="25" viewBox="0 0 24 25" fill="none" xmlns="http://www.w3.org/2000/svg">
<path d="M10.0001 20.4C10 20.5859 10.0517 20.768 10.1494 20.9261C10.2471 21.0842 10.3869 21.212 10.5531 21.295L12.5531 22.295C12.7056 22.3712 12.8751 22.4072 13.0454 22.3995C13.2157 22.3918 13.3812 22.3406 13.5262 22.251C13.6711 22.1613 13.7908 22.036 13.8737 21.8871C13.9567 21.7382 14.0002 21.5705 14.0001 21.4V14.4C14.0004 13.9044 14.1846 13.4265 14.5171 13.059L21.7401 5.07002C21.8696 4.92658 21.9547 4.74871 21.9852 4.55791C22.0157 4.36711 21.9903 4.17156 21.912 3.9949C21.8338 3.81824 21.706 3.66805 21.5441 3.56248C21.3823 3.45691 21.1934 3.40048 21.0001 3.40002H3.00013C2.80673 3.40009 2.61751 3.45624 2.45538 3.56166C2.29324 3.66708 2.16516 3.81725 2.08663 3.99399C2.00811 4.17072 1.98251 4.36643 2.01295 4.55742C2.04339 4.7484 2.12855 4.92646 2.25813 5.07002L9.48313 13.059C9.81566 13.4265 9.9999 13.9044 10.0001 14.4V20.4Z" stroke="#171717" stroke-width="2" stroke-linecap="round" stroke-linejoin="round"/>
</svg>
