<svg width="19" height="17" viewBox="0 0 19 17" fill="none" xmlns="http://www.w3.org/2000/svg">
<path d="M15.5969 7.29185C15.5969 10.9327 11.3204 14.7244 9.88429 15.8955C9.75051 15.9905 9.58766 16.0419 9.42027 16.0419C9.25289 16.0419 9.09004 15.9905 8.95625 15.8955C7.52019 14.7244 3.24365 10.9327 3.24365 7.29185C3.24365 5.74471 3.8944 4.26095 5.05274 3.16696C6.21108 2.07297 7.78213 1.45837 9.42027 1.45837C11.0584 1.45837 12.6295 2.07297 13.7878 3.16696C14.9461 4.26095 15.5969 5.74471 15.5969 7.29185Z" stroke="white" stroke-width="1.5" stroke-linecap="round" stroke-linejoin="round"/>
<path d="M9.42027 9.4794C10.6995 9.4794 11.7365 8.5 11.7365 7.29185C11.7365 6.0837 10.6995 5.1043 9.42027 5.1043C8.14105 5.1043 7.10404 6.0837 7.10404 7.29185C7.10404 8.5 8.14105 9.4794 9.42027 9.4794Z" stroke="white" stroke-width="1.5" stroke-linecap="round" stroke-linejoin="round"/>
</svg>
