<svg width="16" height="16" viewBox="0 0 16 16" fill="none" xmlns="http://www.w3.org/2000/svg">
<g clip-path="url(#clip0_2855_696)">
<path d="M9.10594 10.6597C9.23502 10.7176 9.38044 10.7309 9.51825 10.6972C9.65605 10.6635 9.77802 10.5849 9.86406 10.4744L10.0859 10.1901C10.2024 10.0382 10.3534 9.91492 10.5269 9.83002C10.7005 9.74512 10.8919 9.70091 11.0859 9.70091H12.9609C13.2925 9.70091 13.6104 9.82975 13.8448 10.0591C14.0792 10.2884 14.2109 10.5995 14.2109 10.9238V12.7581C14.2109 13.0824 14.0792 13.3935 13.8448 13.6228C13.6104 13.8522 13.2925 13.981 12.9609 13.981C9.97725 13.981 7.11577 12.8214 5.00599 10.7574C2.8962 8.69343 1.71094 5.89403 1.71094 2.97508C1.71094 2.65075 1.84263 2.3397 2.07705 2.11037C2.31147 1.88104 2.62942 1.7522 2.96094 1.7522H4.83594C5.16746 1.7522 5.4854 1.88104 5.71982 2.11037C5.95424 2.3397 6.08594 2.65075 6.08594 2.97508V4.8094C6.08594 4.99924 6.04076 5.18648 5.95397 5.35628C5.86719 5.52609 5.74118 5.67379 5.58594 5.7877L5.29344 6.00232C5.1787 6.08803 5.09783 6.20995 5.06456 6.34738C5.03129 6.48481 5.04768 6.62927 5.11094 6.75622C5.96511 8.4535 7.36995 9.82614 9.10594 10.6597Z" stroke="white" stroke-width="1.5" stroke-linecap="round" stroke-linejoin="round"/>
</g>
<defs>
<clipPath id="clip0_2855_696">
<rect width="15" height="14.6746" fill="white" transform="translate(0.460938 0.529297)"/>
</clipPath>
</defs>
</svg>
