<svg width="15" height="15" viewBox="0 0 15 15" fill="none" xmlns="http://www.w3.org/2000/svg">
<g clip-path="url(#clip0_2855_686)">
<path d="M1.25 4.375L4.00625 1.61875C4.12254 1.50177 4.26082 1.40896 4.41315 1.34567C4.56547 1.28239 4.72881 1.24987 4.89375 1.25H10.1063C10.2712 1.24987 10.4345 1.28239 10.5869 1.34567C10.7392 1.40896 10.8775 1.50177 10.9938 1.61875L13.75 4.375M1.25 4.375H13.75M1.25 4.375V6.25C1.25 6.58152 1.3817 6.89946 1.61612 7.13388C1.85054 7.3683 2.16848 7.5 2.5 7.5M13.75 4.375V6.25C13.75 6.58152 13.6183 6.89946 13.3839 7.13388C13.1495 7.3683 12.8315 7.5 12.5 7.5M2.5 7.5V12.5C2.5 12.8315 2.6317 13.1495 2.86612 13.3839C3.10054 13.6183 3.41848 13.75 3.75 13.75H11.25C11.5815 13.75 11.8995 13.6183 12.1339 13.3839C12.3683 13.1495 12.5 12.8315 12.5 12.5V7.5M2.5 7.5C2.86517 7.4799 3.21392 7.34172 3.49375 7.10625C3.56832 7.05236 3.65799 7.02335 3.75 7.02335C3.84201 7.02335 3.93168 7.05236 4.00625 7.10625C4.28608 7.34172 4.63483 7.4799 5 7.5C5.36517 7.4799 5.71392 7.34172 5.99375 7.10625C6.06833 7.05236 6.15799 7.02335 6.25 7.02335C6.34201 7.02335 6.43168 7.05236 6.50625 7.10625C6.78608 7.34172 7.13483 7.4799 7.5 7.5C7.86517 7.4799 8.21392 7.34172 8.49375 7.10625C8.56833 7.05236 8.65799 7.02335 8.75 7.02335C8.84201 7.02335 8.93168 7.05236 9.00625 7.10625C9.28608 7.34172 9.63484 7.4799 10 7.5C10.3652 7.4799 10.7139 7.34172 10.9938 7.10625C11.0683 7.05236 11.158 7.02335 11.25 7.02335C11.342 7.02335 11.4317 7.05236 11.5063 7.10625C11.7861 7.34172 12.1348 7.4799 12.5 7.5M9.375 13.75V11.25C9.375 10.9185 9.2433 10.6005 9.00888 10.3661C8.77446 10.1317 8.45652 10 8.125 10H6.875C6.54348 10 6.22554 10.1317 5.99112 10.3661C5.7567 10.6005 5.625 10.9185 5.625 11.25V13.75" stroke="white" stroke-width="1.5" stroke-linecap="round" stroke-linejoin="round"/>
</g>
<defs>
<clipPath id="clip0_2855_686">
<rect width="15" height="15" fill="white"/>
</clipPath>
</defs>
</svg>
