<svg width="18" height="18" viewBox="0 0 18 18" fill="none" xmlns="http://www.w3.org/2000/svg">
<path d="M15.6416 7.79182L14.6549 6.64554C14.4663 6.42789 14.3139 6.02162 14.3139 5.73142V4.49809C14.3139 3.72907 13.6827 3.09789 12.9137 3.09789H11.6804C11.3974 3.09789 10.9839 2.94554 10.7663 2.75691L9.61998 1.77025C9.11939 1.34221 8.29959 1.34221 7.79175 1.77025L6.65273 2.76417C6.43508 2.94554 6.02155 3.09789 5.73861 3.09789H4.48351C3.71449 3.09789 3.08332 3.72907 3.08332 4.49809V5.73868C3.08332 6.02162 2.93096 6.42789 2.74959 6.64554L1.77018 7.79907C1.34939 8.29966 1.34939 9.11221 1.77018 9.6128L2.74959 10.7663C2.93096 10.984 3.08332 11.3902 3.08332 11.6732V12.9138C3.08332 13.6828 3.71449 14.314 4.48351 14.314H5.73861C6.02155 14.314 6.43508 14.4663 6.65273 14.655L7.799 15.6416C8.29959 16.0697 9.11939 16.0697 9.62724 15.6416L10.7735 14.655C10.9912 14.4663 11.3974 14.314 11.6876 14.314H12.921C13.69 14.314 14.3212 13.6828 14.3212 12.9138V11.6804C14.3212 11.3975 14.4735 10.984 14.6621 10.7663L15.6488 9.62005C16.0696 9.11946 16.0696 8.2924 15.6416 7.79182ZM11.7239 7.33476L8.21979 10.8389C8.11822 10.9404 7.98037 10.9985 7.83528 10.9985C7.69018 10.9985 7.55233 10.9404 7.45077 10.8389L5.69508 9.08319C5.48469 8.8728 5.48469 8.52456 5.69508 8.31417C5.90547 8.10378 6.25371 8.10378 6.4641 8.31417L7.83528 9.68535L10.9549 6.56574C11.1653 6.35535 11.5135 6.35535 11.7239 6.56574C11.9343 6.77613 11.9343 7.12436 11.7239 7.33476Z" fill="#1A9AEF"/>
</svg>
