<svg width="11" height="12" viewBox="0 0 11 12" fill="none" xmlns="http://www.w3.org/2000/svg">
<path d="M0.955722 5.72192C0.917103 5.61788 0.917103 5.50344 0.955722 5.3994C1.33185 4.48739 1.97032 3.70759 2.79017 3.15887C3.61002 2.61016 4.57434 2.31723 5.56087 2.31723C6.5474 2.31723 7.51172 2.61016 8.33157 3.15887C9.15142 3.70759 9.78989 4.48739 10.166 5.3994C10.2046 5.50344 10.2046 5.61788 10.166 5.72192C9.78989 6.63393 9.15142 7.41373 8.33157 7.96245C7.51172 8.51116 6.5474 8.80409 5.56087 8.80409C4.57434 8.80409 3.61002 8.51116 2.79017 7.96245C1.97032 7.41373 1.33185 6.63393 0.955722 5.72192Z" stroke="#56A430" stroke-linecap="round" stroke-linejoin="round"/>
<path d="M5.56087 6.95082C6.32864 6.95082 6.95103 6.32843 6.95103 5.56066C6.95103 4.79289 6.32864 4.1705 5.56087 4.1705C4.7931 4.1705 4.17071 4.79289 4.17071 5.56066C4.17071 6.32843 4.7931 6.95082 5.56087 6.95082Z" stroke="#56A430" stroke-linecap="round" stroke-linejoin="round"/>
</svg>
