<svg width="25" height="24" viewBox="0 0 25 24" fill="none" xmlns="http://www.w3.org/2000/svg">
<path d="M16.3544 21V19C16.3544 17.9391 15.9237 16.9217 15.1569 16.1716C14.3901 15.4214 13.3501 15 12.2657 15H6.13266C5.04826 15 4.00828 15.4214 3.2415 16.1716C2.47472 16.9217 2.04395 17.9391 2.04395 19V21M16.3544 3.128C17.2312 3.35037 18.0077 3.85126 18.562 4.55206C19.1163 5.25286 19.4171 6.11389 19.4171 7C19.4171 7.88611 19.1163 8.74714 18.562 9.44794C18.0077 10.1487 17.2312 10.6496 16.3544 10.872M22.4875 21V19C22.4868 18.1137 22.1853 17.2528 21.6303 16.5523C21.0752 15.8519 20.2981 15.3516 19.421 15.13M13.2879 7C13.2879 9.20914 11.4573 11 9.19919 11C6.94106 11 5.11048 9.20914 5.11048 7C5.11048 4.79086 6.94106 3 9.19919 3C11.4573 3 13.2879 4.79086 13.2879 7Z" stroke="#1A9AEF" stroke-width="2" stroke-linecap="round" stroke-linejoin="round"/>
</svg>
