<svg width="25" height="24" viewBox="0 0 25 24" fill="none" xmlns="http://www.w3.org/2000/svg">
<path d="M8.32491 8.00001H16.5023M8.32491 12H16.5023M13.4358 17L8.32491 16H9.34708C10.4315 16 11.4715 15.5786 12.2382 14.8284C13.005 14.0783 13.4358 13.0609 13.4358 12C13.4358 10.9391 13.005 9.92172 12.2382 9.17158C11.4715 8.42143 10.4315 8.00001 9.34708 8.00001M4.08287 8.62001C3.93367 7.96253 3.95658 7.27885 4.14947 6.63235C4.34236 5.98584 4.69898 5.39745 5.18628 4.92173C5.67357 4.446 6.27576 4.09835 6.937 3.911C7.59824 3.72365 8.29714 3.70267 8.96888 3.85001C9.33861 3.28431 9.84795 2.81876 10.45 2.49629C11.052 2.17382 11.7273 2.00479 12.4136 2.00479C13.1 2.00479 13.7753 2.17382 14.3773 2.49629C14.9793 2.81876 15.4886 3.28431 15.8584 3.85001C16.5311 3.70203 17.2312 3.72292 17.8935 3.91072C18.5558 4.09852 19.1588 4.44715 19.6464 4.92416C20.134 5.40117 20.4903 5.99108 20.6823 6.63901C20.8743 7.28694 20.8956 7.97184 20.7444 8.63001C21.3226 8.99171 21.7985 9.49001 22.1281 10.079C22.4577 10.6679 22.6305 11.3286 22.6305 12C22.6305 12.6715 22.4577 13.3321 22.1281 13.9211C21.7985 14.51 21.3226 15.0083 20.7444 15.37C20.895 16.0272 20.8735 16.7109 20.682 17.3578C20.4905 18.0047 20.1351 18.5938 19.6489 19.0705C19.1626 19.5473 18.5612 19.8961 17.9003 20.0848C17.2395 20.2736 16.5406 20.296 15.8686 20.15C15.4993 20.7179 14.9896 21.1854 14.3865 21.5093C13.7835 21.8332 13.1067 22.0031 12.4187 22.0031C11.7308 22.0031 11.0539 21.8332 10.4509 21.5093C9.84787 21.1854 9.33813 20.7179 8.96888 20.15C8.29714 20.2973 7.59824 20.2764 6.937 20.089C6.27576 19.9017 5.67357 19.554 5.18628 19.0783C4.69898 18.6026 4.34236 18.0142 4.14947 17.3677C3.95658 16.7212 3.93367 16.0375 4.08287 15.38C3.50018 15.0192 3.02023 14.5202 2.68765 13.9292C2.35507 13.3383 2.18066 12.6746 2.18066 12C2.18066 11.3254 2.35507 10.6617 2.68765 10.0708C3.02023 9.47983 3.50018 8.98076 4.08287 8.62001Z" stroke="#56A430" stroke-width="2" stroke-linecap="round" stroke-linejoin="round"/>
</svg>
