<svg width="25" height="24" viewBox="0 0 25 24" fill="none" xmlns="http://www.w3.org/2000/svg">
<path d="M2.0957 2.04999H4.14006L6.85905 14.47C6.95879 14.9248 7.2175 15.3315 7.59063 15.6198C7.96377 15.9082 8.428 16.0603 8.9034 16.05H18.9003C19.3656 16.0493 19.8167 15.8933 20.1791 15.6078C20.5415 15.3224 20.7935 14.9245 20.8935 14.48L22.5801 7.04999H5.23379M9.19984 21C9.19984 21.5523 8.74219 22 8.17766 22C7.61313 22 7.15548 21.5523 7.15548 21C7.15548 20.4477 7.61313 20 8.17766 20C8.74219 20 9.19984 20.4477 9.19984 21ZM20.4438 21C20.4438 21.5523 19.9861 22 19.4216 22C18.8571 22 18.3994 21.5523 18.3994 21C18.3994 20.4477 18.8571 20 19.4216 20C19.9861 20 20.4438 20.4477 20.4438 21Z" stroke="#35431C" stroke-width="2" stroke-linecap="round" stroke-linejoin="round"/>
</svg>
