<svg width="24" height="24" viewBox="0 0 24 24" fill="none" xmlns="http://www.w3.org/2000/svg">
<path d="M11.9995 22V13M19.9995 13V16.87C19.9999 17.2474 19.8966 17.6177 19.7009 17.9405C19.5051 18.2632 19.2244 18.5259 18.8895 18.7L12.8895 21.78C12.6146 21.9229 12.3094 21.9975 11.9995 21.9975C11.6897 21.9975 11.3844 21.9229 11.1095 21.78L5.10953 18.7C4.77462 18.5259 4.49396 18.2632 4.29821 17.9405C4.10246 17.6177 3.99914 17.2474 3.99953 16.87V13M15.1695 2.21C15.4186 2.07074 15.6992 1.99762 15.9845 1.99762C16.2699 1.99762 16.5505 2.07074 16.7995 2.21L20.9995 4.57C21.297 4.7382 21.5444 4.98236 21.7166 5.27753C21.8888 5.57269 21.9795 5.90828 21.9795 6.25C21.9795 6.59171 21.8888 6.9273 21.7166 7.22247C21.5444 7.51764 21.297 7.7618 20.9995 7.93L8.81953 14.79C8.56973 14.9325 8.28711 15.0074 7.99953 15.0074C7.71195 15.0074 7.42933 14.9325 7.17953 14.79L2.99953 12.43C2.70208 12.2618 2.45462 12.0176 2.28244 11.7225C2.11026 11.4273 2.01953 11.0917 2.01953 10.75C2.01953 10.4083 2.11026 10.0727 2.28244 9.77753C2.45462 9.48236 2.70208 9.2382 2.99953 9.07L15.1695 2.21ZM20.9995 12.43C21.297 12.2618 21.5444 12.0176 21.7166 11.7225C21.8888 11.4273 21.9795 11.0917 21.9795 10.75C21.9795 10.4083 21.8888 10.0727 21.7166 9.77753C21.5444 9.48236 21.297 9.2382 20.9995 9.07L8.82953 2.2C8.58141 2.05791 8.30046 1.98315 8.01453 1.98315C7.72861 1.98315 7.44765 2.05791 7.19953 2.2L2.99953 4.57C2.70208 4.7382 2.45462 4.98236 2.28244 5.27753C2.11026 5.57269 2.01953 5.90828 2.01953 6.25C2.01953 6.59171 2.11026 6.9273 2.28244 7.22247C2.45462 7.51764 2.70208 7.7618 2.99953 7.93L15.1795 14.79C15.4275 14.9325 15.7085 15.0075 15.9945 15.0075C16.2805 15.0075 16.5615 14.9325 16.8095 14.79L20.9995 12.43Z" stroke="#6CE530" stroke-width="2" stroke-linecap="round" stroke-linejoin="round"/>
</svg>
