<svg width="12" height="12" viewBox="0 0 12 12" fill="none" xmlns="http://www.w3.org/2000/svg">
<path d="M5.56112 10.1945V5.56066M5.56112 5.56066L1.52501 3.24372M5.56112 5.56066L9.59722 3.24372M3.47587 1.97867L7.64636 4.36512M5.09773 10.0694C5.23862 10.1508 5.39843 10.1936 5.56112 10.1936C5.7238 10.1936 5.88362 10.1508 6.0245 10.0694L9.26822 8.21587C9.40897 8.13461 9.52587 8.01777 9.6072 7.87706C9.68854 7.73636 9.73144 7.57674 9.73161 7.41421V3.70711C9.73144 3.54459 9.68854 3.38497 9.6072 3.24426C9.52587 3.10356 9.40897 2.98671 9.26822 2.90545L6.0245 1.0519C5.88362 0.970557 5.7238 0.927734 5.56112 0.927734C5.39843 0.927734 5.23862 0.970557 5.09773 1.0519L1.85401 2.90545C1.71326 2.98671 1.59636 3.10356 1.51503 3.24426C1.43369 3.38497 1.39079 3.54459 1.39062 3.70711V7.41421C1.39079 7.57674 1.43369 7.73636 1.51503 7.87706C1.59636 8.01777 1.71326 8.13461 1.85401 8.21587L5.09773 10.0694Z" stroke="#6CE530" stroke-linecap="round" stroke-linejoin="round"/>
</svg>
