<svg width="25" height="25" viewBox="0 0 25 25" fill="none" xmlns="http://www.w3.org/2000/svg">
<path d="M14.1829 16.6198C14.3947 16.715 14.6333 16.7367 14.8594 16.6815C15.0855 16.6262 15.2856 16.4973 15.4267 16.3159L15.7907 15.8494C15.9817 15.6003 16.2294 15.398 16.5142 15.2587C16.7989 15.1194 17.1129 15.0469 17.4313 15.0469H20.5074C21.0513 15.0469 21.5729 15.2583 21.9575 15.6345C22.3421 16.0108 22.5582 16.5211 22.5582 17.0532V20.0625C22.5582 20.5946 22.3421 21.1049 21.9575 21.4812C21.5729 21.8574 21.0513 22.0688 20.5074 22.0688C15.6124 22.0688 10.9179 20.1664 7.4566 16.7802C3.99531 13.3941 2.05078 8.80139 2.05078 4.01259C2.05078 3.4805 2.26684 2.97021 2.65143 2.59396C3.03602 2.21772 3.55763 2.00635 4.10152 2.00635H7.17762C7.72151 2.00635 8.24313 2.21772 8.62771 2.59396C9.0123 2.97021 9.22836 3.4805 9.22836 4.01259V7.02196C9.22836 7.33342 9.15424 7.6406 9.01186 7.91918C8.86948 8.19775 8.66276 8.44008 8.40807 8.62695L7.92819 8.97905C7.73995 9.11966 7.60727 9.31969 7.55269 9.54516C7.49811 9.77063 7.525 10.0076 7.62879 10.2159C9.03014 13.0004 11.3349 15.2524 14.1829 16.6198Z" stroke="#171717" stroke-width="2" stroke-linecap="round" stroke-linejoin="round"/>
</svg>
