<svg width="22" height="22" viewBox="0 0 22 22" fill="none" xmlns="http://www.w3.org/2000/svg">
<path d="M12.8335 16.4998V5.49984C12.8335 5.01361 12.6403 4.54729 12.2965 4.20347C11.9527 3.85966 11.4864 3.6665 11.0002 3.6665H3.66683C3.1806 3.6665 2.71428 3.85966 2.37047 4.20347C2.02665 4.54729 1.8335 5.01361 1.8335 5.49984V15.5832C1.8335 15.8263 1.93007 16.0594 2.10198 16.2314C2.27389 16.4033 2.50705 16.4998 2.75016 16.4998H4.5835M4.5835 16.4998C4.5835 17.5124 5.40431 18.3332 6.41683 18.3332C7.42935 18.3332 8.25016 17.5124 8.25016 16.4998M4.5835 16.4998C4.5835 15.4873 5.40431 14.6665 6.41683 14.6665C7.42935 14.6665 8.25016 15.4873 8.25016 16.4998M13.7502 16.4998H8.25016M13.7502 16.4998C13.7502 17.5124 14.571 18.3332 15.5835 18.3332C16.596 18.3332 17.4168 17.5124 17.4168 16.4998M13.7502 16.4998C13.7502 15.4873 14.571 14.6665 15.5835 14.6665C16.596 14.6665 17.4168 15.4873 17.4168 16.4998M17.4168 16.4998H19.2502C19.4933 16.4998 19.7264 16.4033 19.8983 16.2314C20.0703 16.0594 20.1668 15.8263 20.1668 15.5832V12.2373C20.1665 12.0293 20.0953 11.8276 19.9652 11.6653L16.7752 7.67784C16.6894 7.57048 16.5807 7.48376 16.4569 7.4241C16.3331 7.36444 16.1976 7.33337 16.0602 7.33317H12.8335" stroke="#697F75" stroke-width="1.5" stroke-linecap="round" stroke-linejoin="round"/>
</svg>
