<svg width="25" height="25" viewBox="0 0 25 25" fill="none" xmlns="http://www.w3.org/2000/svg">
<path d="M2.05078 7.02196L6.57266 2.59819C6.76343 2.41044 6.99031 2.26148 7.2402 2.1599C7.4901 2.05833 7.75807 2.00614 8.02868 2.00635H16.5803C16.8509 2.00614 17.1188 2.05833 17.3687 2.1599C17.6186 2.26148 17.8455 2.41044 18.0363 2.59819L22.5582 7.02196M2.05078 7.02196H22.5582M2.05078 7.02196V10.0313C2.05078 10.5634 2.26684 11.0737 2.65143 11.45C3.03602 11.8262 3.55763 12.0376 4.10152 12.0376M22.5582 7.02196V10.0313C22.5582 10.5634 22.3421 11.0737 21.9575 11.45C21.5729 11.8262 21.0513 12.0376 20.5074 12.0376M4.10152 12.0376V20.0625C4.10152 20.5946 4.31758 21.1049 4.70216 21.4812C5.08675 21.8574 5.60837 22.0688 6.15226 22.0688H18.4567C19.0006 22.0688 19.5222 21.8574 19.9068 21.4812C20.2914 21.1049 20.5074 20.5946 20.5074 20.0625V12.0376M4.10152 12.0376C4.7006 12.0053 5.27277 11.7835 5.73185 11.4056C5.8542 11.3191 6.00131 11.2725 6.15226 11.2725C6.3032 11.2725 6.45031 11.3191 6.57266 11.4056C7.03174 11.7835 7.60391 12.0053 8.20299 12.0376C8.80208 12.0053 9.37424 11.7835 9.83333 11.4056C9.95567 11.3191 10.1028 11.2725 10.2537 11.2725C10.4047 11.2725 10.5518 11.3191 10.6741 11.4056C11.1332 11.7835 11.7054 12.0053 12.3045 12.0376C12.9036 12.0053 13.4757 11.7835 13.9348 11.4056C14.0571 11.3191 14.2043 11.2725 14.3552 11.2725C14.5062 11.2725 14.6533 11.3191 14.7756 11.4056C15.2347 11.7835 15.8069 12.0053 16.4059 12.0376C17.005 12.0053 17.5772 11.7835 18.0363 11.4056C18.1586 11.3191 18.3057 11.2725 18.4567 11.2725C18.6076 11.2725 18.7547 11.3191 18.8771 11.4056C19.3362 11.7835 19.9083 12.0053 20.5074 12.0376M15.3806 22.0688V18.0563C15.3806 17.5242 15.1645 17.0139 14.7799 16.6377C14.3953 16.2614 13.8737 16.0501 13.3298 16.0501H11.2791C10.7352 16.0501 10.2136 16.2614 9.82901 16.6377C9.44442 17.0139 9.22836 17.5242 9.22836 18.0563V22.0688" stroke="#171717" stroke-width="2" stroke-linecap="round" stroke-linejoin="round"/>
</svg>
