<svg width="25" height="24" viewBox="0 0 25 24" fill="none" xmlns="http://www.w3.org/2000/svg">
<path d="M2.60411 17C1.87643 13.7033 1.87643 10.2967 2.60411 7C2.69973 6.66521 2.88446 6.36007 3.14016 6.11461C3.39586 5.86914 3.71371 5.69179 4.06245 5.6C9.64937 4.71146 15.3505 4.71146 20.9374 5.6C21.2862 5.69179 21.604 5.86914 21.8597 6.11461C22.1154 6.36007 22.3002 6.66521 22.3958 7C23.1235 10.2967 23.1235 13.7033 22.3958 17C22.3002 17.3348 22.1154 17.6399 21.8597 17.8854C21.604 18.1309 21.2862 18.3082 20.9374 18.4C15.3505 19.2887 9.64936 19.2887 4.06245 18.4C3.71371 18.3082 3.39586 18.1309 3.14016 17.8854C2.88446 17.6399 2.69973 17.3348 2.60411 17Z" stroke="black" stroke-width="2" stroke-linecap="round" stroke-linejoin="round"/>
<path d="M10.4167 15L15.6251 12L10.4167 9V15Z" stroke="black" stroke-width="2" stroke-linecap="round" stroke-linejoin="round"/>
</svg>
