<svg width="25" height="24" viewBox="0 0 25 24" fill="none" xmlns="http://www.w3.org/2000/svg">
<path d="M17.7083 2H7.29159C4.4151 2 2.08325 4.23858 2.08325 7V17C2.08325 19.7614 4.4151 22 7.29159 22H17.7083C20.5847 22 22.9166 19.7614 22.9166 17V7C22.9166 4.23858 20.5847 2 17.7083 2Z" stroke="black" stroke-width="2" stroke-linecap="round" stroke-linejoin="round"/>
<path d="M16.6667 11.3701C16.7952 12.2023 16.6472 13.0523 16.2435 13.7991C15.8399 14.5459 15.2012 15.1515 14.4184 15.5297C13.6355 15.908 12.7484 16.0397 11.8831 15.906C11.0179 15.7723 10.2185 15.3801 9.59881 14.7852C8.9791 14.1903 8.57057 13.4229 8.43134 12.5923C8.29211 11.7616 8.42926 10.91 8.82328 10.1584C9.2173 9.40691 9.84813 8.7938 10.626 8.4063C11.404 8.0188 12.2893 7.87665 13.1563 8.00006C14.0406 8.12594 14.8592 8.52152 15.4914 9.12836C16.1235 9.73521 16.5356 10.5211 16.6667 11.3701Z" stroke="black" stroke-width="2" stroke-linecap="round" stroke-linejoin="round"/>
<path d="M18.2292 6.5H18.2392" stroke="black" stroke-width="2" stroke-linecap="round" stroke-linejoin="round"/>
</svg>
