<svg width="25" height="24" viewBox="0 0 25 24" fill="none" xmlns="http://www.w3.org/2000/svg">
<path d="M22.9167 16.9201V19.9201C22.9179 20.1986 22.8585 20.4743 22.7423 20.7294C22.626 20.9846 22.4556 21.2137 22.2418 21.402C22.028 21.5902 21.7757 21.7336 21.5009 21.8228C21.226 21.912 20.9348 21.9452 20.6459 21.9201C17.4405 21.5857 14.3615 20.5342 11.6563 18.8501C9.13948 17.3148 7.00563 15.2663 5.40632 12.8501C3.64588 10.2413 2.55033 7.27109 2.20841 4.1801C2.18238 3.90356 2.21661 3.62486 2.30893 3.36172C2.40125 3.09859 2.54963 2.85679 2.74462 2.65172C2.93962 2.44665 3.17695 2.28281 3.44152 2.17062C3.70609 2.05843 3.99209 2.00036 4.28132 2.0001H7.40632C7.91185 1.99532 8.40194 2.16718 8.78524 2.48363C9.16854 2.80008 9.4189 3.23954 9.48966 3.7201C9.62155 4.68016 9.86617 5.62282 10.2188 6.5301C10.359 6.88802 10.3893 7.27701 10.3062 7.65098C10.2231 8.02494 10.0301 8.36821 9.75007 8.6401L8.42716 9.9101C9.91003 12.4136 12.0693 14.4865 14.6772 15.9101L16.0001 14.6401C16.2833 14.3712 16.6409 14.1859 17.0304 14.1062C17.42 14.0264 17.8252 14.0556 18.198 14.1901C19.1431 14.5286 20.125 14.7635 21.1251 14.8901C21.6311 14.9586 22.0932 15.2033 22.4235 15.5776C22.7539 15.9519 22.9294 16.4297 22.9167 16.9201Z" stroke="#123524" stroke-opacity="0.63" stroke-width="2" stroke-linecap="round" stroke-linejoin="round"/>
<path d="M14.6355 2C16.7587 2.21477 18.7419 3.1188 20.2572 4.56258C21.7725 6.00636 22.7291 7.90341 22.9688 9.94" stroke="#123524" stroke-opacity="0.63" stroke-width="2" stroke-linecap="round" stroke-linejoin="round"/>
<path d="M14.6355 6C15.66 6.19394 16.6001 6.67903 17.3338 7.39231C18.0675 8.10559 18.561 9.01413 18.7501 10" stroke="#123524" stroke-opacity="0.63" stroke-width="2" stroke-linecap="round" stroke-linejoin="round"/>
</svg>
