<svg width="30" height="30" viewBox="0 0 30 30" fill="none" xmlns="http://www.w3.org/2000/svg">
<g clip-path="url(#clip0_1698_215)">
<path d="M19.2 17.1998H18.252L17.916 16.8758C19.356 15.1958 20.1 12.9038 19.692 10.4678C19.128 7.13177 16.344 4.46777 12.984 4.05977C7.90797 3.43577 3.63597 7.70777 4.25997 12.7838C4.66797 16.1438 7.33197 18.9278 10.668 19.4918C13.104 19.8998 15.396 19.1558 17.076 17.7158L17.4 18.0518V18.9998L22.5 24.0998C22.992 24.5918 23.796 24.5918 24.288 24.0998C24.78 23.6078 24.78 22.8038 24.288 22.3118L19.2 17.1998ZM12 17.1998C9.01197 17.1998 6.59997 14.7878 6.59997 11.7998C6.59997 8.81177 9.01197 6.39977 12 6.39977C14.988 6.39977 17.4 8.81177 17.4 11.7998C17.4 14.7878 14.988 17.1998 12 17.1998Z" fill="#123524" fill-opacity="0.63"/>
</g>
<defs>
<clipPath id="clip0_1698_215">
<rect width="28.8" height="28.8" fill="white" transform="translate(0.600098 0.399902)"/>
</clipPath>
</defs>
</svg>
