<svg width="25" height="25" viewBox="0 0 25 25" fill="none" xmlns="http://www.w3.org/2000/svg">
<path d="M2.28027 2.58594H4.33101L7.05849 15.0447C7.15854 15.501 7.41806 15.9089 7.79236 16.1982C8.16666 16.4874 8.63233 16.64 9.10923 16.6296H19.1373C19.6041 16.6289 20.0566 16.4724 20.4201 16.1861C20.7836 15.8998 21.0365 15.5007 21.1368 15.0547L22.8287 7.60155H5.42815M9.40658 21.5951C9.40658 22.1491 8.94751 22.5982 8.38122 22.5982C7.81492 22.5982 7.35585 22.1491 7.35585 21.5951C7.35585 21.0411 7.81492 20.592 8.38122 20.592C8.94751 20.592 9.40658 21.0411 9.40658 21.5951ZM20.6856 21.5951C20.6856 22.1491 20.2266 22.5982 19.6603 22.5982C19.094 22.5982 18.6349 22.1491 18.6349 21.5951C18.6349 21.0411 19.094 20.592 19.6603 20.592C20.2266 20.592 20.6856 21.0411 20.6856 21.5951Z" stroke="white" stroke-width="2" stroke-linecap="round" stroke-linejoin="round"/>
</svg>
