<svg width="30" height="29" viewBox="0 0 30 29" fill="none" xmlns="http://www.w3.org/2000/svg">
<g clip-path="url(#clip0_225_176)">
<path d="M19.3999 17H18.4519L18.1159 16.676C19.5559 14.996 20.2999 12.704 19.8919 10.268C19.3279 6.932 16.5439 4.268 13.1839 3.86C8.10792 3.236 3.83592 7.508 4.45992 12.584C4.86792 15.944 7.53192 18.728 10.8679 19.292C13.3039 19.7 15.5959 18.956 17.2759 17.516L17.5999 17.852V18.8L22.6999 23.9C23.1919 24.392 23.9959 24.392 24.4879 23.9C24.9799 23.408 24.9799 22.604 24.4879 22.112L19.3999 17ZM12.1999 17C9.21192 17 6.79992 14.588 6.79992 11.6C6.79992 8.612 9.21192 6.2 12.1999 6.2C15.1879 6.2 17.5999 8.612 17.5999 11.6C17.5999 14.588 15.1879 17 12.1999 17Z" fill="#123524" fill-opacity="0.63"/>
</g>
<defs>
<clipPath id="clip0_225_176">
<rect width="28.8" height="28.8" fill="white" transform="translate(0.799805 0.199997)"/>
</clipPath>
</defs>
</svg>
