<svg width="25" height="24" viewBox="0 0 25 24" fill="none" xmlns="http://www.w3.org/2000/svg">
<path d="M16.3547 5H22.4878M19.4212 2V8M21.4656 11.5V19C21.4656 19.5304 21.2502 20.0391 20.8668 20.4142C20.4834 20.7893 19.9634 21 19.4212 21H5.11076C4.56856 21 4.04857 20.7893 3.66518 20.4142C3.28179 20.0391 3.06641 19.5304 3.06641 19V5C3.06641 4.46957 3.28179 3.96086 3.66518 3.58579C4.04857 3.21071 4.56856 3 5.11076 3H12.7771M21.4656 15L18.3112 11.914C17.9278 11.5391 17.4079 11.3284 16.8658 11.3284C16.3237 11.3284 15.8038 11.5391 15.4204 11.914L6.13294 21M11.2438 9C11.2438 10.1046 10.3285 11 9.19947 11C8.0704 11 7.15512 10.1046 7.15512 9C7.15512 7.89543 8.0704 7 9.19947 7C10.3285 7 11.2438 7.89543 11.2438 9Z" stroke="#56A430" stroke-width="2" stroke-linecap="round" stroke-linejoin="round"/>
</svg>
