<svg width="20" height="20" viewBox="0 0 20 20" fill="none" xmlns="http://www.w3.org/2000/svg">
<g clip-path="url(#clip0_2538_1297)">
<path d="M5.8335 15C4.91683 15 4.17516 15.75 4.17516 16.6667C4.17516 17.5833 4.91683 18.3333 5.8335 18.3333C6.75016 18.3333 7.50016 17.5833 7.50016 16.6667C7.50016 15.75 6.75016 15 5.8335 15ZM0.833496 2.49999C0.833496 2.95832 1.2085 3.33332 1.66683 3.33332H2.50016L5.50016 9.65832L4.37516 11.6917C3.76683 12.8083 4.56683 14.1667 5.8335 14.1667H15.0002C15.4585 14.1667 15.8335 13.7917 15.8335 13.3333C15.8335 12.875 15.4585 12.5 15.0002 12.5H5.8335L6.75016 10.8333H12.9585C13.5835 10.8333 14.1335 10.4917 14.4168 9.97499L17.4002 4.56666C17.7085 4.01666 17.3085 3.33332 16.6752 3.33332H4.34183L3.7835 2.14166C3.65016 1.84999 3.35016 1.66666 3.0335 1.66666H1.66683C1.2085 1.66666 0.833496 2.04166 0.833496 2.49999ZM14.1668 15C13.2502 15 12.5085 15.75 12.5085 16.6667C12.5085 17.5833 13.2502 18.3333 14.1668 18.3333C15.0835 18.3333 15.8335 17.5833 15.8335 16.6667C15.8335 15.75 15.0835 15 14.1668 15Z" fill="#171717"/>
</g>
<defs>
<clipPath id="clip0_2538_1297">
<rect width="20" height="20" fill="white"/>
</clipPath>
</defs>
</svg>
