<svg width="43" height="43" viewBox="0 0 43 43" fill="none" xmlns="http://www.w3.org/2000/svg">
<rect width="43" height="43" fill="#1E1E1E"/>
<g id="Frame 17" clip-path="url(#clip0_15_152)">
<rect width="1536" height="3636" transform="translate(-198 -2448)" fill="#FFF6F4"/>
<g id="Frame 30">
<g id="Group 3">
<path id="Rectangle 33" d="M-198.6 -82.6H1337.6V-35.1092V77.8764V119.6H642.047H-198.6V-82.6Z" fill="url(#paint0_linear_15_152)" fill-opacity="0.3" stroke="url(#paint1_linear_15_152)" stroke-width="0.8"/>
<g id="convert-3d-cube">
<g id="vuesax/bulk/convert-3d-cube">
<g id="convert-3d-cube_2">
<path id="Vector" opacity="0.4" d="M26.8749 40.7604C26.3912 40.7604 25.9433 40.4917 25.7104 40.0796C25.4774 39.6675 25.4774 39.1479 25.7283 38.7358L27.6095 35.6004C27.9858 34.9554 28.8099 34.7583 29.4549 35.1346C30.0999 35.5108 30.297 36.335 29.9208 36.98L29.437 37.7863C34.382 36.6217 38.0908 32.1783 38.0908 26.875C38.0908 26.1404 38.6999 25.5312 39.4345 25.5312C40.1691 25.5312 40.7783 26.1404 40.7783 26.875C40.7603 34.5254 34.5253 40.7604 26.8749 40.7604Z" fill="#292D32"/>
<path id="Vector_2" opacity="0.4" d="M3.58325 17.4687C2.84867 17.4687 2.2395 16.8595 2.2395 16.1249C2.2395 8.4745 8.4745 2.2395 16.1249 2.2395C16.6087 2.2395 17.0566 2.50826 17.2895 2.92034C17.5224 3.33243 17.5224 3.85201 17.2716 4.26409L15.3903 7.39951C15.0141 8.04451 14.1899 8.24161 13.5449 7.86536C12.8999 7.48911 12.7028 6.66489 13.0791 6.01989L13.5628 5.21362C8.61785 6.3782 4.9091 10.8216 4.9091 16.1249C4.92701 16.8595 4.31784 17.4687 3.58325 17.4687Z" fill="#292D32"/>
<g id="Group">
<path id="Vector_3" d="M19.1172 24.8145L13.4914 21.7866C12.9001 21.4641 12.1835 21.4641 11.5922 21.7866L5.96637 24.8145C5.55429 25.0295 5.30347 25.4774 5.30347 25.9612C5.30347 26.4449 5.55429 26.8929 5.96637 27.1079L11.5922 30.1358C11.8968 30.297 12.2193 30.3687 12.5418 30.3687C12.8643 30.3687 13.1868 30.297 13.4914 30.1358L19.1172 27.1079C19.5293 26.8929 19.7801 26.4449 19.7801 25.9612C19.7801 25.4774 19.5114 25.0474 19.1172 24.8145Z" fill="#292D32"/>
<path id="Vector_4" d="M10.6604 31.1929L5.42875 28.5772C5.03458 28.3801 4.56876 28.3979 4.17459 28.6309C3.79834 28.8638 3.56543 29.2759 3.56543 29.7239V34.6688C3.56543 35.5288 4.03124 36.2992 4.80166 36.6754L10.0333 39.2913C10.2125 39.3809 10.4096 39.4347 10.6067 39.4347C10.8396 39.4347 11.0725 39.363 11.2875 39.2376C11.6638 39.0047 11.8967 38.5925 11.8967 38.1446V33.1997C11.9146 32.3397 11.4308 31.5692 10.6604 31.1929Z" fill="#292D32"/>
<path id="Vector_5" d="M20.8908 28.6309C20.5145 28.3979 20.0487 28.3801 19.6366 28.5772L14.4049 31.1929C13.6345 31.5692 13.1687 32.3397 13.1687 33.1997V38.1446C13.1687 38.5925 13.4016 39.0047 13.7779 39.2376C13.9929 39.363 14.2258 39.4347 14.4587 39.4347C14.6558 39.4347 14.8529 39.3809 15.032 39.2913L20.2637 36.6754C21.0341 36.2992 21.4999 35.5288 21.4999 34.6688V29.7239C21.4999 29.2759 21.267 28.8638 20.8908 28.6309Z" fill="#292D32"/>
</g>
<g id="Group_2">
<path id="Vector_6" d="M37.0339 6.86208L31.4081 3.83416C30.8169 3.51166 30.1002 3.51166 29.509 3.83416L23.8831 6.86208C23.471 7.07708 23.2202 7.52491 23.2202 8.00866C23.2202 8.49241 23.471 8.94036 23.8831 9.15536L29.509 12.1833C29.8135 12.3445 30.136 12.4162 30.4585 12.4162C30.781 12.4162 31.1035 12.3445 31.4081 12.1833L37.0339 9.15536C37.446 8.94036 37.6969 8.49241 37.6969 8.00866C37.6969 7.507 37.4281 7.07708 37.0339 6.86208Z" fill="#292D32"/>
<path id="Vector_7" d="M28.5772 13.2225L23.3455 10.6067C22.9513 10.4096 22.4855 10.4275 22.0913 10.6605C21.7151 10.8934 21.4822 11.3054 21.4822 11.7534V16.6984C21.4822 17.5584 21.948 18.3288 22.7184 18.705L27.9501 21.3209C28.1293 21.4105 28.3263 21.4642 28.5234 21.4642C28.7563 21.4642 28.9893 21.3925 29.2043 21.2671C29.5805 21.0342 29.8134 20.6221 29.8134 20.1742V15.2292C29.8313 14.3692 29.3476 13.5988 28.5772 13.2225Z" fill="#292D32"/>
<path id="Vector_8" d="M38.8075 10.6605C38.4313 10.4275 37.9655 10.4096 37.5534 10.6067L32.3217 13.2225C31.5513 13.5988 31.0854 14.3692 31.0854 15.2292V20.1742C31.0854 20.6221 31.3184 21.0342 31.6946 21.2671C31.9096 21.3925 32.1425 21.4642 32.3755 21.4642C32.5725 21.4642 32.7696 21.4105 32.9488 21.3209L38.1804 18.705C38.9509 18.3288 39.4167 17.5584 39.4167 16.6984V11.7534C39.4167 11.3054 39.1838 10.8934 38.8075 10.6605Z" fill="#292D32"/>
</g>
</g>
</g>
</g>
</g>
</g>
</g>
<defs>
<linearGradient id="paint0_linear_15_152" x1="1030.3" y1="0.986524" x2="952.877" y2="-351.356" gradientUnits="userSpaceOnUse">
<stop stop-color="#649173"/>
<stop offset="1" stop-color="#DBD5A4"/>
</linearGradient>
<linearGradient id="paint1_linear_15_152" x1="288.531" y1="-171.989" x2="359.038" y2="164.793" gradientUnits="userSpaceOnUse">
<stop stop-color="white"/>
<stop offset="0.3804" stop-color="#C5ADAD" stop-opacity="0.843917"/>
<stop offset="0.692629" stop-color="#897070" stop-opacity="0.41865"/>
<stop offset="1" stop-color="white" stop-opacity="0"/>
</linearGradient>
<clipPath id="clip0_15_152">
<rect width="1536" height="3636" fill="white" transform="translate(-198 -2448)"/>
</clipPath>
</defs>
</svg>
