<svg width="43" height="43" viewBox="0 0 43 43" fill="none" xmlns="http://www.w3.org/2000/svg">
<path d="M31.0137 20.1562C31.0495 20.6221 30.8883 21.1058 30.5299 21.4641L19.7441 32.25C17.3612 34.6329 14.9604 34.6329 12.5595 32.25L5.37495 25.0654C4.15661 23.8291 3.54745 22.5929 3.58328 21.3566H3.7087L30.7987 20.1742L31.0137 20.1562Z" fill="#292D32"/>
<path opacity="0.4" d="M30.5299 19.0633L17.3612 5.89447L15.8024 4.33573C15.2828 3.81615 14.4228 3.81615 13.9032 4.33573C13.3837 4.85532 13.3837 5.71531 13.9032 6.23489L15.462 7.79364L5.37492 17.8807C4.22825 19.0274 3.61909 20.192 3.58325 21.3566H3.70867L30.7987 20.1741L31.0137 20.1562C30.9958 19.762 30.8166 19.35 30.5299 19.0633Z" fill="#292D32"/>
<path d="M28.6667 40.7605H5.375C4.64042 40.7605 4.03125 40.1513 4.03125 39.4167C4.03125 38.6822 4.64042 38.073 5.375 38.073H28.6667C29.4012 38.073 30.0104 38.6822 30.0104 39.4167C30.0104 40.1513 29.4012 40.7605 28.6667 40.7605Z" fill="#292D32"/>
<path d="M34.6687 26.4807C34.2029 25.9791 33.3429 25.9791 32.8771 26.4807C32.3217 27.0899 29.5625 30.2073 29.5625 32.5544C29.5625 34.8836 31.4437 36.7649 33.7729 36.7649C36.1021 36.7649 37.9833 34.8836 37.9833 32.5544C37.9833 30.2073 35.2242 27.0899 34.6687 26.4807Z" fill="#292D32"/>
</svg>
