<svg width="44" height="43" viewBox="0 0 44 43" fill="none" xmlns="http://www.w3.org/2000/svg">
<path opacity="0.4" d="M27.3784 5.37492V21.4999C27.3784 23.4708 25.7648 25.0833 23.7927 25.0833H4.07153V13.6524C5.3803 15.2112 7.38832 16.1787 9.61144 16.1249C11.4222 16.0891 13.0536 15.3903 14.2728 14.2258C14.8285 13.7599 15.2947 13.1687 15.6533 12.5237C16.2987 11.4307 16.6572 10.1407 16.6214 8.79695C16.5676 6.7007 15.6353 4.85534 14.1831 3.58325H25.5855C26.5716 3.58325 27.3784 4.3895 27.3784 5.37492Z" fill="#292D32"/>
<path d="M39.9282 25.0833V30.4583C39.9282 33.4324 37.5258 35.8333 34.5497 35.8333H32.7569C32.7569 33.8624 31.1433 32.2499 29.1712 32.2499C27.1991 32.2499 25.5855 33.8624 25.5855 35.8333H18.4142C18.4142 33.8624 16.8006 32.2499 14.8285 32.2499C12.8564 32.2499 11.2429 33.8624 11.2429 35.8333H9.45003C6.47393 35.8333 4.07153 33.4324 4.07153 30.4583V25.0833H23.7927C25.7648 25.0833 27.3784 23.4708 27.3784 21.4999V8.95825H30.6772C31.9681 8.95825 33.1513 9.65702 33.7967 10.7679L36.8624 16.1249H34.5497C33.5636 16.1249 32.7569 16.9312 32.7569 17.9166V23.2916C32.7569 24.277 33.5636 25.0833 34.5497 25.0833H39.9282Z" fill="#292D32"/>
<path opacity="0.4" d="M14.8286 39.4167C16.8089 39.4167 18.4143 37.8124 18.4143 35.8333C18.4143 33.8543 16.8089 32.25 14.8286 32.25C12.8483 32.25 11.2429 33.8543 11.2429 35.8333C11.2429 37.8124 12.8483 39.4167 14.8286 39.4167Z" fill="#292D32"/>
<path opacity="0.4" d="M29.1711 39.4167C31.1514 39.4167 32.7568 37.8124 32.7568 35.8333C32.7568 33.8543 31.1514 32.25 29.1711 32.25C27.1908 32.25 25.5854 33.8543 25.5854 35.8333C25.5854 37.8124 27.1908 39.4167 29.1711 39.4167Z" fill="#292D32"/>
<path opacity="0.4" d="M39.9282 22.4496V25.0833H34.5497C33.5636 25.0833 32.7568 24.2771 32.7568 23.2917V17.9167C32.7568 16.9312 33.5636 16.125 34.5497 16.125H36.8624L39.462 20.6758C39.7668 21.2133 39.9282 21.8226 39.9282 22.4496Z" fill="#292D32"/>
<path d="M14.1829 3.5833C12.892 2.43663 11.1708 1.7558 9.28835 1.79163C7.60309 1.82746 6.06129 2.45453 4.84216 3.45787C3.22861 4.80162 2.22464 6.8621 2.27843 9.1196C2.31428 10.4633 2.70871 11.7175 3.40792 12.7746C3.60513 13.0791 3.82026 13.3837 4.07126 13.6525C5.38003 15.2112 7.38805 16.1787 9.61116 16.125C11.4219 16.0891 13.0534 15.3904 14.2725 14.2258C14.8283 13.76 15.2944 13.1687 15.653 12.5237C16.2984 11.4308 16.6569 10.1407 16.6211 8.797C16.5673 6.70075 15.6351 4.85538 14.1829 3.5833ZM13.143 8.09833L9.39592 11.7174C9.127 11.9683 8.80436 12.0937 8.46372 12.0937C8.12308 12.0937 7.80034 11.9683 7.53141 11.7174L5.72063 9.99749C5.18278 9.47791 5.16493 8.63583 5.68485 8.09833C6.20477 7.56083 7.0474 7.54288 7.58525 8.06246L8.46372 8.90449L11.2785 6.18124C11.8163 5.66165 12.659 5.6795 13.1789 6.21699C13.6988 6.73658 13.6808 7.57875 13.143 8.09833Z" fill="#292D32"/>
</svg>
