<svg width="43" height="43" viewBox="0 0 43 43" fill="none" xmlns="http://www.w3.org/2000/svg">
<g id="Left Arrow">
<circle id="Ellipse 4" cx="21.5" cy="21.5" r="21.5" fill="white"/>
<path id="Vector" d="M20.0487 28.6488C20.4429 29.0429 20.936 29.2307 21.528 29.2121C22.1185 29.1949 22.6108 28.9892 23.005 28.595C23.3992 28.2008 23.5963 27.6992 23.5963 27.09C23.5963 26.4808 23.3992 25.9792 23.005 25.585L21.07 23.65H28.0037C28.6129 23.65 29.1146 23.4436 29.5088 23.0308C29.9029 22.6194 30.1 22.1092 30.1 21.5C30.1 20.8908 29.8943 20.3799 29.483 19.9671C29.0702 19.5557 28.5592 19.35 27.95 19.35H21.07L23.0588 17.3612C23.4529 16.9671 23.6414 16.474 23.6242 15.8821C23.6056 15.2915 23.3992 14.7992 23.005 14.405C22.6108 14.0108 22.1092 13.8138 21.5 13.8138C20.8908 13.8138 20.3892 14.0108 19.995 14.405L14.405 19.995C13.975 20.425 13.76 20.9267 13.76 21.5C13.76 22.0733 13.975 22.575 14.405 23.005L20.0487 28.6488ZM21.5 43C18.5258 43 15.7308 42.4353 13.115 41.3058C10.4992 40.1778 8.22375 38.6463 6.28875 36.7113C4.35375 34.7763 2.82223 32.5008 1.6942 29.885C0.564734 27.2692 0 24.4742 0 21.5C0 18.5258 0.564734 15.7308 1.6942 13.115C2.82223 10.4992 4.35375 8.22375 6.28875 6.28875C8.22375 4.35375 10.4992 2.82152 13.115 1.69205C15.7308 0.564017 18.5258 0 21.5 0C24.4742 0 27.2692 0.564017 29.885 1.69205C32.5008 2.82152 34.7763 4.35375 36.7113 6.28875C38.6463 8.22375 40.1778 10.4992 41.3058 13.115C42.4353 15.7308 43 18.5258 43 21.5C43 24.4742 42.4353 27.2692 41.3058 29.885C40.1778 32.5008 38.6463 34.7763 36.7113 36.7113C34.7763 38.6463 32.5008 40.1778 29.885 41.3058C27.2692 42.4353 24.4742 43 21.5 43ZM21.5 38.7C26.2658 38.7 30.3243 37.0252 33.6755 33.6755C37.0252 30.3243 38.7 26.2658 38.7 21.5C38.7 16.7342 37.0252 12.6757 33.6755 9.32455C30.3243 5.97485 26.2658 4.3 21.5 4.3C16.7342 4.3 12.6764 5.97485 9.3267 9.32455C5.97557 12.6757 4.3 16.7342 4.3 21.5C4.3 26.2658 5.97557 30.3243 9.3267 33.6755C12.6764 37.0252 16.7342 38.7 21.5 38.7Z" fill="#123524"/>
</g>
</svg>
