<svg width="51" height="51" viewBox="0 0 51 51" fill="none" xmlns="http://www.w3.org/2000/svg">
<g id="Arrow circle right">
<path id="Vector" d="M26.9875 32.5125L32.5125 26.9875C32.9021 26.5979 33.0969 26.1021 33.0969 25.5C33.0969 24.8979 32.9021 24.4021 32.5125 24.0125L26.9344 18.4344C26.5448 18.0448 26.0582 17.8585 25.4745 17.8755C24.8894 17.8939 24.4021 18.0979 24.0125 18.4875C23.6229 18.8771 23.4281 19.3729 23.4281 19.975C23.4281 20.5771 23.6229 21.0729 24.0125 21.4625L25.925 23.375H19.0719C18.4698 23.375 17.974 23.5783 17.5844 23.9849C17.1948 24.3929 17 24.8979 17 25.5C17 26.1021 17.204 26.6064 17.612 27.013C18.0186 27.421 18.5229 27.625 19.125 27.625H25.925L23.9594 29.5906C23.5698 29.9802 23.3835 30.4675 23.4005 31.0526C23.4189 31.6363 23.6229 32.1229 24.0125 32.5125C24.4021 32.9021 24.8979 33.0969 25.5 33.0969C26.1021 33.0969 26.5979 32.9021 26.9875 32.5125ZM25.5 46.75C22.5604 46.75 19.7979 46.1918 17.2125 45.0755C14.6271 43.9606 12.3781 42.4469 10.4656 40.5344C8.55313 38.6219 7.03942 36.3729 5.9245 33.7875C4.80817 31.2021 4.25 28.4396 4.25 25.5C4.25 22.5604 4.80817 19.7979 5.9245 17.2125C7.03942 14.6271 8.55313 12.3781 10.4656 10.4656C12.3781 8.55313 14.6271 7.03871 17.2125 5.92237C19.7979 4.80746 22.5604 4.25 25.5 4.25C28.4396 4.25 31.2021 4.80746 33.7875 5.92237C36.3729 7.03871 38.6219 8.55313 40.5344 10.4656C42.4469 12.3781 43.9606 14.6271 45.0755 17.2125C46.1918 19.7979 46.75 22.5604 46.75 25.5C46.75 28.4396 46.1918 31.2021 45.0755 33.7875C43.9606 36.3729 42.4469 38.6219 40.5344 40.5344C38.6219 42.4469 36.3729 43.9606 33.7875 45.0755C31.2021 46.1918 28.4396 46.75 25.5 46.75Z" fill="#123524"/>
</g>
</svg>
